<svg width="96" height="42" viewBox="0 0 96 42" fill="none" xmlns="http://www.w3.org/2000/svg">
<path d="M6.21413 26V10.6686H17.5222V13.6206H10.047V16.8345H16.6414V19.8341H10.047V23.048H17.5222V26H6.21413ZM35.577 26V10.6686H43.1236C44.3457 10.6686 45.3535 10.9146 46.147 11.4066C46.9406 11.8828 47.5278 12.5335 47.9087 13.3588C48.3055 14.1841 48.5039 15.1125 48.5039 16.1441C48.5039 17.1916 48.2817 18.1201 47.8373 18.9295C47.3929 19.7389 46.7581 20.3737 45.9328 20.834C45.1234 21.2784 44.1552 21.5006 43.0284 21.5006H39.4098V26H35.577ZM39.4098 18.5486H42.1714C42.9808 18.5486 43.5839 18.3264 43.9806 17.882C44.3933 17.4376 44.5996 16.8504 44.5996 16.1203C44.5996 15.3268 44.4092 14.7157 44.0283 14.2872C43.6632 13.8428 43.0839 13.6206 42.2904 13.6206H39.4098V18.5486ZM50.0143 26V10.6686H61.3223V13.6206H53.8471V16.8345H60.4415V19.8341H53.8471V23.048H61.3223V26H50.0143ZM63.1497 26V10.6686H70.8153C72.6246 10.6686 73.9578 11.1448 74.8148 12.097C75.6719 13.0493 76.1004 14.3269 76.1004 15.9299C76.1004 16.9615 75.8385 17.8661 75.3148 18.6438C74.791 19.4215 74.0768 20.0008 73.1722 20.3817C73.3944 20.5563 73.569 20.7546 73.6959 20.9768C73.8388 21.1832 73.9895 21.4768 74.1483 21.8577L75.9575 26H71.9581L70.244 22.0957C70.1012 21.7625 69.9186 21.5244 69.6964 21.3815C69.4743 21.2228 69.1568 21.1435 68.7442 21.1435H66.9825V26H63.1497ZM66.9825 18.1915H69.8155C70.5614 18.1915 71.1407 18.009 71.5533 17.6439C71.9819 17.263 72.1961 16.6917 72.1961 15.9299C72.1961 14.3904 71.4581 13.6206 69.9821 13.6206H66.9825V18.1915ZM81.5991 26V13.6206H77.0997V10.6686H89.9314V13.6206H85.432V26H81.5991Z" fill="black"/>
<path d="M18.2689 26L23.8635 18.2867L18.4356 10.6686H23.0064L26.1727 15.2395L29.3627 10.6686H33.9336L28.5057 18.2867L34.1002 26H29.4818L26.1727 21.3577L22.8874 26H18.2689Z" fill="#D43434"/>
<path d="M7.5755 37.8592C6.87283 37.8592 6.32883 37.6864 5.9435 37.3407C5.55817 36.995 5.3655 36.4652 5.3655 35.7512C5.3655 35.1052 5.52983 34.5952 5.8585 34.2212C6.18717 33.8472 6.68583 33.6602 7.3545 33.6602C7.9665 33.6602 8.4255 33.8217 8.7315 34.1447C9.04317 34.462 9.199 34.8729 9.199 35.3772V36.1252H6.2495C6.29483 36.5162 6.4365 36.7854 6.6745 36.9327C6.9125 37.08 7.27517 37.1537 7.7625 37.1537C7.9665 37.1537 8.17617 37.1339 8.3915 37.0942C8.60683 37.0545 8.79383 37.0035 8.9525 36.9412V37.6212C8.77117 37.7005 8.5615 37.76 8.3235 37.7997C8.09117 37.8394 7.84183 37.8592 7.5755 37.8592ZM6.2495 35.5217H8.383V35.2412C8.383 34.9635 8.3065 34.7482 8.1535 34.5952C8.0005 34.4365 7.74267 34.3572 7.38 34.3572C6.94933 34.3572 6.65183 34.4507 6.4875 34.6377C6.32883 34.8247 6.2495 35.1194 6.2495 35.5217ZM10.1009 37.7742V33.7452H10.9509L10.9934 34.1702C11.1748 34.0285 11.3901 33.9095 11.6394 33.8132C11.8944 33.7112 12.1749 33.6602 12.4809 33.6602C13.0023 33.6602 13.3819 33.782 13.6199 34.0257C13.8579 34.2694 13.9769 34.649 13.9769 35.1647V37.7742H13.0589V35.2072C13.0589 34.8955 12.9938 34.6774 12.8634 34.5527C12.7388 34.428 12.5008 34.3657 12.1494 34.3657C11.9398 34.3657 11.7329 34.4082 11.5289 34.4932C11.3306 34.5782 11.1634 34.6887 11.0274 34.8247V37.7742H10.1009ZM16.647 39.2702C16.3467 39.2702 16.0463 39.2504 15.746 39.2107C15.4457 39.1767 15.1907 39.1229 14.981 39.0492V38.3352C15.2077 38.4089 15.4683 38.4655 15.763 38.5052C16.0577 38.5449 16.3382 38.5647 16.6045 38.5647C17.0125 38.5647 17.31 38.542 17.497 38.4967C17.684 38.4514 17.7775 38.3494 17.7775 38.1907C17.7775 38.0717 17.7322 37.9867 17.6415 37.9357C17.5508 37.8904 17.378 37.8677 17.123 37.8677H16.035C15.304 37.8677 14.9385 37.6099 14.9385 37.0942C14.9385 36.9299 14.9867 36.7769 15.083 36.6352C15.1793 36.4935 15.3323 36.3859 15.542 36.3122C15.3097 36.1989 15.1368 36.043 15.0235 35.8447C14.9158 35.6464 14.862 35.4084 14.862 35.1307C14.862 34.615 15.015 34.241 15.321 34.0087C15.6327 33.7764 16.0973 33.6602 16.715 33.6602C16.8453 33.6602 16.9813 33.6715 17.123 33.6942C17.2647 33.7112 17.3752 33.7282 17.4545 33.7452H18.9335L18.908 34.3487H18.228C18.3357 34.4394 18.415 34.5527 18.466 34.6887C18.517 34.8247 18.5425 34.972 18.5425 35.1307C18.5425 35.5614 18.4122 35.9014 18.1515 36.1507C17.8908 36.3944 17.497 36.5162 16.97 36.5162C16.8793 36.5162 16.7943 36.5134 16.715 36.5077C16.6413 36.4964 16.5592 36.485 16.4685 36.4737C16.2985 36.4907 16.1455 36.536 16.0095 36.6097C15.8735 36.6834 15.8055 36.7825 15.8055 36.9072C15.8055 36.9922 15.8395 37.0545 15.9075 37.0942C15.9755 37.1282 16.0888 37.1452 16.2475 37.1452H17.378C17.7803 37.1452 18.0892 37.233 18.3045 37.4087C18.5255 37.5787 18.636 37.828 18.636 38.1567C18.636 38.5534 18.4632 38.8367 18.1175 39.0067C17.7775 39.1824 17.2873 39.2702 16.647 39.2702ZM16.715 35.9297C17.0833 35.9297 17.3383 35.8674 17.48 35.7427C17.6273 35.618 17.701 35.4055 17.701 35.1052C17.701 34.8049 17.6273 34.5867 17.48 34.4507C17.3383 34.3147 17.0833 34.2467 16.715 34.2467C16.3693 34.2467 16.1172 34.3119 15.9585 34.4422C15.7998 34.5725 15.7205 34.7935 15.7205 35.1052C15.7205 35.3942 15.7942 35.6039 15.9415 35.7342C16.0945 35.8645 16.3523 35.9297 16.715 35.9297ZM20.7245 37.8592C20.3959 37.8592 20.1465 37.7799 19.9765 37.6212C19.8065 37.4569 19.7215 37.1877 19.7215 36.8137V32.0452H20.648V36.7287C20.648 36.8874 20.6764 36.995 20.733 37.0517C20.7897 37.1084 20.8747 37.1367 20.988 37.1367C21.124 37.1367 21.2544 37.1197 21.379 37.0857V37.7572C21.2714 37.7969 21.1665 37.8224 21.0645 37.8337C20.9682 37.8507 20.8549 37.8592 20.7245 37.8592ZM22.145 32.9037V32.1387H23.1565V32.9037H22.145ZM22.2215 37.7742V34.4507H21.6095L21.6945 33.7452H23.148V37.7742H22.2215ZM25.5719 37.8592C25.2942 37.8592 25.0279 37.8394 24.7729 37.7997C24.5235 37.76 24.3167 37.7119 24.1524 37.6552V36.8732C24.345 36.9469 24.5575 37.0035 24.7899 37.0432C25.0222 37.0829 25.2432 37.1027 25.4529 37.1027C25.7702 37.1027 25.9969 37.0744 26.1329 37.0177C26.2689 36.961 26.3369 36.8505 26.3369 36.6862C26.3369 36.5672 26.2944 36.4737 26.2094 36.4057C26.13 36.3377 26.0082 36.2754 25.8439 36.2187C25.6852 36.162 25.4812 36.094 25.2319 36.0147C24.9939 35.9354 24.787 35.8504 24.6114 35.7597C24.4357 35.6634 24.2997 35.5415 24.2034 35.3942C24.107 35.2469 24.0589 35.0542 24.0589 34.8162C24.0589 34.4479 24.192 34.1645 24.4584 33.9662C24.7247 33.7622 25.1525 33.6602 25.7419 33.6602C25.9742 33.6602 26.1952 33.6772 26.4049 33.7112C26.6145 33.7452 26.793 33.7877 26.9404 33.8387V34.6122C26.7817 34.5499 26.606 34.5017 26.4134 34.4677C26.2264 34.4337 26.0507 34.4167 25.8864 34.4167C25.5917 34.4167 25.3679 34.4422 25.2149 34.4932C25.0675 34.5442 24.9939 34.6462 24.9939 34.7992C24.9939 34.9579 25.0704 35.0712 25.2234 35.1392C25.382 35.2015 25.6342 35.2894 25.9799 35.4027C26.2972 35.499 26.5494 35.601 26.7364 35.7087C26.9234 35.8164 27.0565 35.9467 27.1359 36.0997C27.2209 36.247 27.2634 36.4397 27.2634 36.6777C27.2634 37.0744 27.1189 37.3719 26.8299 37.5702C26.5409 37.7629 26.1215 37.8592 25.5719 37.8592ZM28.1717 37.7742V32.0452H29.0982V34.1362C29.2739 33.9945 29.4836 33.8812 29.7272 33.7962C29.9709 33.7055 30.2457 33.6602 30.5517 33.6602C31.0617 33.6602 31.4386 33.782 31.6822 34.0257C31.9259 34.2694 32.0477 34.649 32.0477 35.1647V37.7742H31.1297V35.2072C31.1297 34.8955 31.0617 34.6774 30.9257 34.5527C30.7954 34.428 30.5659 34.3657 30.2372 34.3657C30.0332 34.3657 29.8264 34.411 29.6167 34.5017C29.4071 34.5867 29.2342 34.7 29.0982 34.8417V37.7742H28.1717ZM36.3878 37.8592C36.1101 37.8592 35.8438 37.8394 35.5888 37.7997C35.3394 37.76 35.1326 37.7119 34.9683 37.6552V36.8732C35.1609 36.9469 35.3734 37.0035 35.6058 37.0432C35.8381 37.0829 36.0591 37.1027 36.2688 37.1027C36.5861 37.1027 36.8128 37.0744 36.9488 37.0177C37.0848 36.961 37.1528 36.8505 37.1528 36.6862C37.1528 36.5672 37.1103 36.4737 37.0253 36.4057C36.9459 36.3377 36.8241 36.2754 36.6598 36.2187C36.5011 36.162 36.2971 36.094 36.0478 36.0147C35.8098 35.9354 35.6029 35.8504 35.4273 35.7597C35.2516 35.6634 35.1156 35.5415 35.0193 35.3942C34.9229 35.2469 34.8748 35.0542 34.8748 34.8162C34.8748 34.4479 35.0079 34.1645 35.2743 33.9662C35.5406 33.7622 35.9684 33.6602 36.5578 33.6602C36.7901 33.6602 37.0111 33.6772 37.2208 33.7112C37.4304 33.7452 37.6089 33.7877 37.7563 33.8387V34.6122C37.5976 34.5499 37.4219 34.5017 37.2293 34.4677C37.0423 34.4337 36.8666 34.4167 36.7023 34.4167C36.4076 34.4167 36.1838 34.4422 36.0308 34.4932C35.8834 34.5442 35.8098 34.6462 35.8098 34.7992C35.8098 34.9579 35.8863 35.0712 36.0393 35.1392C36.1979 35.2015 36.4501 35.2894 36.7958 35.4027C37.1131 35.499 37.3653 35.601 37.5523 35.7087C37.7393 35.8164 37.8724 35.9467 37.9518 36.0997C38.0368 36.247 38.0793 36.4397 38.0793 36.6777C38.0793 37.0744 37.9348 37.3719 37.6458 37.5702C37.3568 37.7629 36.9374 37.8592 36.3878 37.8592ZM40.8436 37.8592C40.1353 37.8592 39.5998 37.6807 39.2371 37.3237C38.8745 36.961 38.6931 36.4397 38.6931 35.7597C38.6931 35.0514 38.8915 34.5244 39.2881 34.1787C39.6905 33.833 40.226 33.6602 40.8946 33.6602C41.1723 33.6602 41.4046 33.68 41.5916 33.7197C41.7843 33.7594 41.9685 33.8217 42.1441 33.9067V34.5952C41.8495 34.4479 41.4925 34.3742 41.0731 34.3742C40.6085 34.3742 40.2515 34.479 40.0021 34.6887C39.7528 34.8927 39.6281 35.2497 39.6281 35.7597C39.6281 36.2414 39.7386 36.5955 39.9596 36.8222C40.1806 37.0432 40.5461 37.1537 41.0561 37.1537C41.4585 37.1537 41.824 37.0772 42.1526 36.9242V37.6297C41.9656 37.7034 41.7645 37.76 41.5491 37.7997C41.3395 37.8394 41.1043 37.8592 40.8436 37.8592ZM42.889 37.7742V32.0452H43.8155V34.1362C43.9912 33.9945 44.2008 33.8812 44.4445 33.7962C44.6882 33.7055 44.963 33.6602 45.269 33.6602C45.779 33.6602 46.1558 33.782 46.3995 34.0257C46.6432 34.2694 46.765 34.649 46.765 35.1647V37.7742H45.847V35.2072C45.847 34.8955 45.779 34.6774 45.643 34.5527C45.5127 34.428 45.2832 34.3657 44.9545 34.3657C44.7505 34.3657 44.5437 34.411 44.334 34.5017C44.1243 34.5867 43.9515 34.7 43.8155 34.8417V37.7742H42.889ZM49.6496 37.8592C48.9242 37.8592 48.3916 37.6779 48.0516 37.3152C47.7172 36.9525 47.5501 36.434 47.5501 35.7597C47.5501 35.0854 47.7201 34.5669 48.0601 34.2042C48.4001 33.8415 48.9299 33.6602 49.6496 33.6602C50.3749 33.6602 50.9076 33.8415 51.2476 34.2042C51.5876 34.5669 51.7576 35.0854 51.7576 35.7597C51.7576 36.434 51.5876 36.9525 51.2476 37.3152C50.9132 37.6779 50.3806 37.8592 49.6496 37.8592ZM49.6496 37.0772C50.0746 37.0772 50.3749 36.9752 50.5506 36.7712C50.7319 36.5615 50.8226 36.2244 50.8226 35.7597C50.8226 35.295 50.7319 34.9607 50.5506 34.7567C50.3749 34.5527 50.0746 34.4507 49.6496 34.4507C49.2302 34.4507 48.9299 34.5527 48.7486 34.7567C48.5729 34.9607 48.4851 35.295 48.4851 35.7597C48.4851 36.2244 48.5729 36.5615 48.7486 36.7712C48.9299 36.9752 49.2302 37.0772 49.6496 37.0772ZM54.5885 37.8592C53.8632 37.8592 53.3305 37.6779 52.9905 37.3152C52.6562 36.9525 52.489 36.434 52.489 35.7597C52.489 35.0854 52.659 34.5669 52.999 34.2042C53.339 33.8415 53.8689 33.6602 54.5885 33.6602C55.3139 33.6602 55.8465 33.8415 56.1865 34.2042C56.5265 34.5669 56.6965 35.0854 56.6965 35.7597C56.6965 36.434 56.5265 36.9525 56.1865 37.3152C55.8522 37.6779 55.3195 37.8592 54.5885 37.8592ZM54.5885 37.0772C55.0135 37.0772 55.3139 36.9752 55.4895 36.7712C55.6709 36.5615 55.7615 36.2244 55.7615 35.7597C55.7615 35.295 55.6709 34.9607 55.4895 34.7567C55.3139 34.5527 55.0135 34.4507 54.5885 34.4507C54.1692 34.4507 53.8689 34.5527 53.6875 34.7567C53.5119 34.9607 53.424 35.295 53.424 35.7597C53.424 36.2244 53.5119 36.5615 53.6875 36.7712C53.8689 36.9752 54.1692 37.0772 54.5885 37.0772ZM58.601 37.8592C58.2723 37.8592 58.023 37.7799 57.853 37.6212C57.683 37.4569 57.598 37.1877 57.598 36.8137V32.0452H58.5245V36.7287C58.5245 36.8874 58.5528 36.995 58.6095 37.0517C58.6662 37.1084 58.7512 37.1367 58.8645 37.1367C59.0005 37.1367 59.1308 37.1197 59.2555 37.0857V37.7572C59.1478 37.7969 59.043 37.8224 58.941 37.8337C58.8447 37.8507 58.7313 37.8592 58.601 37.8592Z" fill="black"/>
</svg>
