<?xml version="1.0" encoding="UTF-8"?>
<!DOCTYPE svg PUBLIC "-//W3C//DTD SVG 1.1//EN" "http://www.w3.org/Graphics/SVG/1.1/DTD/svg11.dtd">
<!-- Creator: CorelDRAW (Evaluation Version) -->
<svg xmlns="http://www.w3.org/2000/svg" xml:space="preserve" width="525.556mm" height="150mm" version="1.1" style="shape-rendering:geometricPrecision; text-rendering:geometricPrecision; image-rendering:optimizeQuality; fill-rule:evenodd; clip-rule:evenodd"
viewBox="0 0 52555.6 15000"
 xmlns:xlink="http://www.w3.org/1999/xlink"
 xmlns:xodm="http://www.corel.com/coreldraw/odm/2003">
 <defs>
  <style type="text/css">
   <![CDATA[
    .fil0 {fill:white;fill-rule:nonzero}
   ]]>
  </style>
 </defs>
 <g id="Layer_x0020_1">
  <metadata id="CorelCorpID_0Corel-Layer"/>
  <g id="_105553158089760">
   <path class="fil0" d="M4457.36 8537.77l4.32 13.85c-1121.59,0 -2039.65,-190.41 -2749.85,-567.75 -705.86,-373.88 -1138.91,-903.55 -1299.13,-1592.47 -30.33,-159.24 12.98,-287.33 125.57,-387.73 116.93,-93.47 281.48,-141.94 493.68,-141.94l1662.9 0c168.88,0 298.8,27.7 381.09,86.55 77.94,58.85 155.88,152.32 229.51,287.34 164.56,391.19 549.97,585.06 1156.23,585.06 316.13,0 584.63,-58.86 809.8,-180.02 220.86,-117.71 333.45,-270.03 333.45,-456.97 0,-162.71 -95.27,-304.65 -285.82,-425.81 -186.21,-117.71 -433.03,-218.1 -736.18,-301.19 -233.84,-65.77 -571.62,-152.32 -1009,-259.64 -346.43,-83.08 -710.2,-193.86 -1095.6,-332.34 -363.76,-131.55 -697.21,-287.34 -1004.67,-467.35 -307.46,-176.56 -554.3,-422.35 -740.51,-730.46 -186.21,-315.03 -281.49,-671.61 -281.49,-1069.73 0,-806.61 359.44,-1429.75 1073.96,-1872.88 714.53,-439.66 1667.24,-661.22 2853.78,-661.22 1095.61,0 1974.7,176.56 2641.6,526.21 671.22,353.11 1082.62,851.62 1229.85,1492.07 30.31,162.71 -8.66,287.34 -116.92,380.81 -116.93,93.47 -281.48,141.94 -493.68,141.94l-1632.59 0c-264.15,0 -463.36,-100.4 -597.61,-304.65 -186.2,-342.72 -536.97,-512.36 -1052.29,-512.36 -303.14,0 -549.97,51.93 -744.85,159.25 -194.86,107.32 -290.14,252.72 -290.14,432.74 0,186.94 125.59,346.18 381.08,474.27 251.17,131.56 567.3,231.95 952.71,304.65 385.4,72.7 792.47,173.09 1229.85,304.65 454.7,135.01 861.77,287.33 1229.86,453.5 385.4,176.56 701.53,432.74 957.03,768.54 255.49,339.27 381.08,744.31 381.08,1218.59 0,820.46 -359.43,1464.37 -1082.61,1931.73 -723.2,467.35 -1693.22,702.76 -2914.41,702.76zm11687.94 -6328.33l-3408.09 0 0 1073.19 2810.49 0c420.05,0 627.91,166.17 627.91,501.97l0 955.48c0,332.34 -207.86,498.51 -627.91,498.51l-2810.49 0 0 1145.89 3408.09 0c428.72,0 640.91,169.63 640.91,512.36l0 990.1c0,335.8 -212.19,501.97 -640.91,501.97l-5521.36 0c-428.71,0 -640.9,-166.17 -640.9,-501.97l0 -7179.96c0,-332.34 212.19,-498.51 640.9,-498.51l5521.36 0c428.72,0 640.91,166.17 640.91,498.51l0 990.1c0,342.73 -212.19,512.36 -640.91,512.36zm8292.86 4164.65c428.72,0 640.91,166.17 640.91,498.51l0 1003.95c0,342.73 -212.19,512.36 -640.91,512.36l-5213.89 0c-428.71,0 -640.9,-169.63 -640.9,-512.36l0 -7155.72c0,-342.72 212.19,-512.36 640.9,-512.36l1468.03 0c428.72,0 645.24,169.64 645.24,512.36l0 5653.26 3100.62 0zm8310.19 -4164.65l-3408.09 0 0 1073.19 2810.48 0c420.05,0 627.92,166.17 627.92,501.97l0 955.48c0,332.34 -207.87,498.51 -627.92,498.51l-2810.48 0 0 1145.89 3408.09 0c428.72,0 640.91,169.63 640.91,512.36l0 990.1c0,335.8 -212.19,501.97 -640.91,501.97l-5521.36 0c-428.71,0 -640.9,-166.17 -640.9,-501.97l0 -7179.96c0,-332.34 212.19,-498.51 640.9,-498.51l5521.36 0c428.72,0 640.91,166.17 640.91,498.51l0 990.1c0,342.73 -212.19,512.36 -640.91,512.36zm6318.16 6328.33l0 -24.23c-1264.5,0 -2277.83,-280.41 -3035.66,-841.24 -762.16,-560.83 -1143.25,-1298.21 -1143.25,-2215.61l0 -2350.62c0,-917.4 381.09,-1658.24 1143.25,-2219.07 757.83,-560.82 1771.16,-841.24 3035.66,-841.24 1260.16,0 2264.84,256.18 3014.01,765.08 744.84,501.98 1117.26,1228.97 1117.26,2180.99 0,308.11 -181.88,463.89 -545.63,463.89l-1619.61 0c-303.13,0 -498,-145.4 -580.28,-439.66 -108.26,-636.98 -571.62,-955.48 -1385.75,-955.48 -446.04,0 -796.8,100.4 -1052.3,304.65 -259.84,204.25 -389.74,467.35 -389.74,789.31l0 2271c0,325.41 129.9,588.52 389.74,792.77 255.5,204.25 606.26,304.64 1052.3,304.64 827.13,0 1290.49,-318.49 1394.41,-955.48 82.29,-294.26 277.15,-439.66 580.28,-439.66l1619.6 0c363.77,0 541.32,166.17 536.98,498.51 0,938.18 -376.75,1658.25 -1125.92,2160.22 -757.84,501.98 -1758.17,751.23 -3005.35,751.23zm12209.8 -8329.3c428.71,0 640.9,169.64 640.9,512.36l0 1000.49c0,335.8 -212.19,501.97 -640.9,501.97l-1909.74 0 0 5653.26c0,342.73 -207.87,512.36 -623.59,512.36l-1463.7 0c-428.71,0 -640.9,-169.63 -640.9,-512.36l0 -5653.26 -1927.06 0c-428.72,0 -640.91,-166.17 -645.24,-501.97l0 -1000.49c0,-342.72 216.52,-512.36 645.24,-512.36l6564.99 0z"/>
  </g>
  <g id="_105553158088832">
   <path class="fil0" d="M12190.43 12053.34l-10.17 0c358.67,43.27 643.58,152.32 854.71,327.15 211.13,173.09 315.43,387.73 315.43,643.91 0,318.49 -147.53,576.4 -445.15,772 -297.63,197.33 -694.46,295.99 -1185.41,295.99l-2790.55 0c-251.83,0 -376.49,-84.82 -376.49,-256.18l0 -3577.86c0,-171.36 124.66,-256.18 376.49,-256.18l2612.48 0c485.86,0 880.15,96.93 1182.86,290.8 297.62,195.6 447.72,453.51 447.72,775.46 0,249.26 -89.05,458.7 -269.65,626.6 -180.61,171.37 -417.19,271.76 -712.27,304.65l0 53.66zm-1104.01 -1100.88l-931.02 3.46 0 647.37 925.94 0c142.45,0 256.93,-29.42 340.87,-86.54 83.95,-57.12 127.18,-136.75 127.18,-238.87 0,-96.94 -43.23,-174.83 -129.72,-235.41 -89.04,-60.58 -198.42,-90.01 -333.25,-90.01zm175.53 2191.37l-5.1 0c137.38,0 249.31,-31.15 338.34,-95.2 86.48,-64.04 129.73,-145.4 129.73,-247.52 0,-102.13 -43.25,-181.75 -129.73,-242.34 -89.03,-58.85 -198.42,-88.27 -333.24,-88.27l-1106.55 0 0 673.33 1106.55 0zm7923.93 668.15l5.08 0c63.59,186.94 -40.71,280.41 -315.43,280.41l-1055.68 0c-198.41,0 -315.43,-67.51 -351.04,-202.52l-152.63 -444.85 -1661.09 0 -145.01 444.85c-33.06,135.01 -150.07,202.52 -351.04,202.52l-994.63 0c-282.35,0 -389.19,-93.47 -315.42,-280.41l1447.41 -3589.98c58.52,-147.13 193.34,-219.83 407.01,-219.83l1617.85 0c223.87,0 361.23,72.7 412.11,219.83l1452.51 3589.98zm-3197.56 -1350.14l1002.25 0 -455.34 -1362.25 -99.2 0 -447.71 1362.25zm7926.46 268.3l913.23 1064.53c78.86,91.74 96.65,162.71 53.42,216.37 -43.25,53.65 -139.91,81.35 -290,81.35l-1078.57 0c-216.22,0 -368.85,-65.78 -460.42,-197.33l-714.8 -979.71 -681.75 0 0 920.86c0,171.36 -127.18,256.18 -379.02,256.18l-862.35 0c-251.83,0 -376.48,-84.82 -376.48,-256.18l0 -3577.86c0,-171.36 124.65,-256.18 376.48,-256.18l2396.26 0c643.58,0 1154.88,129.82 1538.99,387.73 384.11,257.91 577.44,607.56 577.44,1045.49 0,604.1 -338.32,1036.84 -1012.43,1294.75zm-2256.35 -1720.56l0 891.44 987 0c216.22,0 381.57,-38.08 498.58,-115.98 117.02,-77.89 175.53,-186.94 175.53,-330.61 0,-141.93 -58.51,-250.98 -175.53,-328.88 -117.01,-77.89 -282.36,-115.97 -498.58,-115.97l-987 0zm7822.17 1043.76l-10.17 0c358.67,43.27 643.58,152.32 854.71,327.15 211.13,173.09 315.43,387.73 315.43,643.91 0,318.49 -147.53,576.4 -445.16,772 -297.62,197.33 -694.46,295.99 -1185.41,295.99l-2790.55 0c-251.83,0 -376.48,-84.82 -376.48,-256.18l0 -3577.86c0,-171.36 124.65,-256.18 376.48,-256.18l2612.48 0c485.87,0 880.16,96.93 1182.87,290.8 297.62,195.6 447.71,453.51 447.71,775.46 0,249.26 -89.04,458.7 -269.64,626.6 -180.61,171.37 -417.19,271.76 -712.27,304.65l0 53.66zm-1104.01 -1100.88l-931.02 3.46 0 647.37 925.94 0c142.45,0 256.93,-29.42 340.87,-86.54 83.95,-57.12 127.18,-136.75 127.18,-238.87 0,-96.94 -43.23,-174.83 -129.72,-235.41 -89.04,-60.58 -198.43,-90.01 -333.25,-90.01zm175.53 2191.37l-5.1 0c137.38,0 249.31,-31.15 338.33,-95.2 86.49,-64.04 129.74,-145.4 129.74,-247.52 0,-102.13 -43.25,-181.75 -129.74,-242.34 -89.02,-58.85 -198.41,-88.27 -333.23,-88.27l-1106.55 0 0 673.33 1106.55 0zm6545.17 -2141.17l-2001.96 0 0 536.59 1650.92 0c246.76,0 368.86,83.08 368.86,250.99l0 477.74c0,166.17 -122.1,249.25 -368.86,249.25l-1650.92 0 0 572.94 2001.96 0c251.85,0 376.49,84.82 376.49,256.18l0 495.05c0,167.9 -124.64,250.99 -376.49,250.99l-3243.33 0c-251.83,0 -376.48,-83.09 -376.48,-250.99l0 -3589.97c0,-166.17 124.65,-249.26 376.48,-249.26l3243.33 0c251.85,0 376.49,83.09 376.49,249.26l0 495.05c0,171.36 -124.64,256.18 -376.49,256.18zm5308.91 1727.48l913.22 1064.53c78.86,91.74 96.66,162.71 53.42,216.37 -43.25,53.65 -139.91,81.35 -290,81.35l-1078.57 0c-216.22,0 -368.85,-65.78 -460.42,-197.33l-714.8 -979.71 -681.75 0 0 920.86c0,171.36 -127.18,256.18 -379.02,256.18l-862.35 0c-251.83,0 -376.48,-84.82 -376.48,-256.18l0 -3577.86c0,-171.36 124.65,-256.18 376.48,-256.18l2396.26 0c643.58,0 1154.88,129.82 1538.99,387.73 384.11,257.91 577.44,607.56 577.44,1045.49 0,604.1 -338.32,1036.84 -1012.42,1294.75zm-2256.36 -1720.56l0 891.44 987 0c216.23,0 381.57,-38.08 498.58,-115.98 117.02,-77.89 175.53,-186.94 175.53,-330.61 0,-141.93 -58.51,-250.98 -175.53,-328.88 -117.01,-77.89 -282.35,-115.97 -498.58,-115.97l-987 0z"/>
  </g>
 </g>
</svg>
