<svg width="208" height="43" viewBox="0 0 208 43" fill="none" xmlns="http://www.w3.org/2000/svg">
<g clip-path="url(#clip0_433_3)">
<path d="M0 27.765L4.05 23.715C4.98 24.945 6.06 25.8973 7.29 26.572C8.26665 27.0904 9.33616 27.4105 10.437 27.514C10.8864 27.5624 11.338 27.5861 11.79 27.585C12.5924 27.5969 13.3925 27.4963 14.167 27.286C14.6727 27.1453 15.1537 26.9274 15.593 26.64C16.5377 26.01 17.01 25.14 17.01 24.03C17.01 23.07 16.74 22.29 16.2 21.69C15.66 21.09 14.9477 20.58 14.063 20.16C13.1777 19.74 12.2027 19.3573 11.138 19.012C10.0727 18.6673 9.00767 18.27 7.943 17.82C6.87767 17.37 5.90267 16.8073 5.018 16.132C4.13267 15.4573 3.42 14.5873 2.88 13.522C2.4947 12.7296 2.25006 11.8762 2.157 11C2.09731 10.5006 2.06825 9.99795 2.07 9.49498C2.05194 8.30706 2.26453 7.12692 2.696 6.01998C2.89931 5.51665 3.15718 5.03711 3.465 4.58998C4.395 3.23998 5.67 2.20498 7.29 1.48498C8.72972 0.860252 10.2712 0.503086 11.839 0.43098C12.1524 0.413386 12.4661 0.404716 12.78 0.40498C14.3698 0.38941 15.951 0.640213 17.458 1.14698C17.8565 1.28439 18.2477 1.44227 18.63 1.61998C20.37 2.42998 21.795 3.47998 22.905 4.76998L18.855 8.81998C18.2316 8.11952 17.5192 7.50363 16.736 6.98798C16.498 6.83496 16.2516 6.6954 15.998 6.56998C15.0227 6.08998 13.92 5.84998 12.69 5.84998C11.9658 5.83816 11.2435 5.92941 10.545 6.12098C10.125 6.23964 9.72545 6.42138 9.36 6.65998C8.55 7.19998 8.145 7.97998 8.145 8.99998C8.145 9.86998 8.415 10.575 8.955 11.115C9.52723 11.6652 10.1917 12.1106 10.918 12.431C10.9761 12.4579 11.0344 12.4842 11.093 12.51C11.9777 12.9 12.9527 13.275 14.018 13.635C15.0827 13.995 16.1477 14.4 17.213 14.85C18.2777 15.3 19.2527 15.885 20.138 16.605C21.0227 17.325 21.735 18.2473 22.275 19.372C22.6675 20.2225 22.9146 21.1328 23.006 22.065C23.06 22.5531 23.0864 23.0439 23.085 23.535C23.102 24.7473 22.8931 25.9522 22.469 27.088C21.9529 28.4141 21.094 29.5795 19.98 30.465C18.8165 31.3894 17.4718 32.0592 16.033 32.431C14.9563 32.7256 13.773 32.9026 12.483 32.962C12.1472 32.9774 11.8111 32.9851 11.475 32.985C8.925 32.985 6.74267 32.55 4.928 31.68C3.33946 30.904 1.90701 29.8427 0.702 28.549C0.460429 28.2945 0.226329 28.0331 0 27.765Z" fill="black"/>
<path d="M33.2102 32.535H27.2702V10.8H33.2102V32.535ZM30.2402 7.29004C29.2802 7.29004 28.4852 6.96737 27.8552 6.32204C27.2252 5.67737 26.9102 4.87504 26.9102 3.91504C26.9102 2.98504 27.2252 2.19004 27.8552 1.53004C28.4852 0.870039 29.2802 0.540039 30.2402 0.540039C31.2302 0.540039 32.0328 0.870039 32.6482 1.53004C33.2628 2.19004 33.5702 2.98504 33.5702 3.91504C33.5702 4.87504 33.2628 5.67737 32.6482 6.32204C32.0328 6.96737 31.2302 7.29004 30.2402 7.29004Z" fill="black"/>
<path d="M37.1698 37.44L40.9048 33.705C41.7448 34.695 42.6825 35.4527 43.7178 35.978C44.6017 36.4082 45.5608 36.6626 46.5418 36.727C46.8521 36.7526 47.1634 36.7653 47.4748 36.765C48.3551 36.7793 49.2315 36.6461 50.0678 36.371C50.7104 36.1537 51.3047 35.8138 51.8178 35.37C52.3062 34.9351 52.6991 34.4038 52.9719 33.8095C53.2447 33.2152 53.3914 32.5708 53.4028 31.917C53.4108 31.7781 53.4148 31.6391 53.4148 31.5V26.055L54.4048 21.285L53.4598 16.515V10.8H59.3098V31.41C59.3273 32.7966 59.0855 34.1743 58.5968 35.472C58.3824 36.0242 58.1162 36.5549 57.8018 37.057C56.7971 38.6623 55.4098 39.915 53.6398 40.815C52.1888 41.5371 50.6125 41.9733 48.9968 42.1C48.5057 42.1437 48.0129 42.1654 47.5198 42.165C46.1663 42.1762 44.817 42.0139 43.5048 41.682C42.7818 41.4946 42.0773 41.2423 41.3998 40.928C39.6298 40.1027 38.2198 38.94 37.1698 37.44ZM55.6648 17.73C55.6048 16.26 55.2148 14.9773 54.4948 13.882C53.7748 12.7873 52.7925 11.925 51.5478 11.295C51.3327 11.1862 51.1128 11.0871 50.8888 10.998C49.7282 10.5521 48.493 10.3321 47.2498 10.35C45.2998 10.35 43.5448 10.8223 41.9848 11.767C40.4248 12.7123 39.2025 13.995 38.3178 15.615C38.207 15.8172 38.1029 16.0229 38.0058 16.232C37.3141 17.7623 36.9673 19.4258 36.9898 21.105C36.9898 23.145 37.4325 24.99 38.3178 26.64C39.2025 28.29 40.4248 29.5873 41.9848 30.532C43.5448 31.4773 45.2998 31.95 47.2498 31.95C47.3485 31.9499 47.4472 31.9485 47.5458 31.946C48.9162 31.9336 50.2672 31.6199 51.5028 31.027C52.7475 30.4123 53.7375 29.5423 54.4728 28.417C55.2075 27.2923 55.6048 26.01 55.6648 24.57V17.73ZM48.4198 26.595C47.3398 26.595 46.3948 26.355 45.5848 25.875C44.7748 25.395 44.1448 24.7423 43.6948 23.917C43.2448 23.0923 43.0198 22.17 43.0198 21.15C43.0198 20.1 43.2448 19.1627 43.6948 18.338C44.1448 17.5127 44.7748 16.8673 45.5848 16.402C46.3948 15.9373 47.3398 15.705 48.4198 15.705C49.4998 15.705 50.4375 15.9373 51.2328 16.402C52.0275 16.8673 52.6498 17.505 53.0998 18.315C53.5498 19.125 53.7748 20.07 53.7748 21.15C53.7748 22.2 53.5498 23.1377 53.0998 23.963C52.6498 24.7877 52.0275 25.4323 51.2328 25.897C50.4375 26.3623 49.4998 26.595 48.4198 26.595Z" fill="black"/>
<path d="M85.0049 32.535H79.1099V20.07C79.1099 18.78 78.7049 17.73 77.8949 16.92C77.0849 16.11 76.0349 15.705 74.7449 15.705C73.9049 15.705 73.1549 15.885 72.4949 16.245C71.8349 16.605 71.3175 17.115 70.9429 17.775C70.5675 18.435 70.3799 19.2 70.3799 20.07L68.0849 18.9C68.0662 17.67 68.2926 16.4486 68.7509 15.307C68.8774 15.0033 69.0234 14.708 69.1879 14.423C69.9225 13.1476 70.9425 12.15 72.2479 11.43C73.5525 10.71 75.0299 10.35 76.6799 10.35C78.2699 10.35 79.6949 10.7473 80.9549 11.542C82.2149 12.3373 83.2049 13.3723 83.9249 14.647C84.6449 15.9223 85.0049 17.295 85.0049 18.765V32.535ZM70.3799 32.535H64.4849V10.8H70.3799V32.535Z" fill="black"/>
<path d="M95.6699 32.535H89.7749V0H95.6699V32.535Z" fill="black"/>
<path d="M107.955 41.625H101.7L108.315 27.63L111.915 32.715L107.955 41.625ZM111.915 32.715L121.59 10.8H115.155L108.9 27.5401H111.06L105.03 10.8H98.6401L107.73 32.715H111.915Z" fill="black"/>
<path d="M137.465 20.8909H129.5V15.8959H136.835C137.795 15.8959 138.665 15.7009 139.445 15.3109C140.225 14.9209 140.84 14.3582 141.29 13.6229C141.743 12.8441 141.976 11.9568 141.964 11.0559C141.965 11.0192 141.965 10.9826 141.965 10.9459C141.965 9.92589 141.74 9.04089 141.29 8.29089C140.84 7.54089 140.225 6.97089 139.445 6.58089C138.665 6.19089 137.795 5.99589 136.835 5.99589H129.5V1.00089H137.465C139.055 0.981657 140.633 1.27417 142.111 1.86189C142.375 1.96954 142.634 2.08763 142.888 2.21589C144.493 3.02589 145.76 4.17322 146.69 5.65789C147.491 6.96768 147.958 8.45431 148.049 9.98689C148.073 10.306 148.085 10.6259 148.085 10.9459C148.102 12.219 147.888 13.4846 147.455 14.6819C147.253 15.2236 146.997 15.7436 146.69 16.2339C145.76 17.7186 144.493 18.8659 142.888 19.6759C141.331 20.4449 139.622 20.8579 137.886 20.8849C137.746 20.8889 137.605 20.8909 137.465 20.8909ZM131.12 32.6359H125V1.00089H131.12V32.6359Z" fill="#4E6DF5"/>
<path d="M165.015 32.535H156.78V27.09H164.835C166.142 27.1054 167.442 26.9005 168.681 26.484C169.203 26.3029 169.708 26.0763 170.19 25.807C171.72 24.9524 172.913 23.745 173.768 22.185C174.444 20.9196 174.856 19.5303 174.98 18.101C175.028 17.6188 175.051 17.1346 175.05 16.65C175.066 15.3397 174.862 14.0361 174.447 12.793C174.261 12.2513 174.026 11.7275 173.745 11.228C172.875 9.68269 171.675 8.48235 170.145 7.62702C168.747 6.86382 167.192 6.43237 165.6 6.36602C165.345 6.35182 165.09 6.34482 164.835 6.34502H156.645V0.90002H164.925C166.944 0.883409 168.952 1.20832 170.862 1.86102C171.052 1.92717 171.241 1.99685 171.428 2.07002C173.423 2.85002 175.163 3.95235 176.648 5.37702C178.133 6.80235 179.288 8.47502 180.113 10.395C180.926 12.3216 181.346 14.391 181.349 16.482C181.35 16.553 181.35 16.624 181.35 16.695C181.35 18.975 180.938 21.0827 180.113 23.018C179.288 24.9527 178.14 26.6324 176.67 28.057C175.2 29.4824 173.468 30.585 171.473 31.365C169.478 32.145 167.325 32.535 165.015 32.535ZM158.715 32.535H152.595V0.90002H158.715V32.535Z" fill="#4E6DF5"/>
<path d="M192.33 32.535H186.21V0.900024H192.33V32.535ZM207.405 6.30002H190.71V0.900024H207.405V6.30002ZM206.64 19.575H190.71V14.13H206.64V19.575Z" fill="#4E6DF5"/>
<path d="M54.5015 27.1938C54.5849 27.0788 54.921 26.701 55.07 26.5462C55.128 26.486 54.7881 27.0115 54.4251 27.5585C54.2058 27.889 54.1436 28.0464 54.1382 28.073C54.1108 28.2088 54.2592 27.8575 54.2698 27.831C54.228 27.9517 54.1439 28.0777 54.0858 28.2042C54.07 28.236 54.0492 28.2673 53.9961 28.3627" stroke="black" stroke-width="2" stroke-linecap="round"/>
<path d="M53.7695 29.2578V29.2656" stroke="black" stroke-linecap="round"/>
<path d="M53.4766 29.5938C53.4753 29.6015 53.4714 29.6132 53.4675 29.6178C53.4631 29.6229 53.4532 29.612 53.4492 29.6107C53.4454 29.6094 53.4635 29.6133 53.4713 29.6133C53.4738 29.6133 53.4597 29.6184 53.4519 29.6282C53.4492 29.6328 53.4492 29.6366 53.4479 29.6406C53.4466 29.6445 53.4441 29.6484 53.4414 29.6523" stroke="black" stroke-width="0.1" stroke-linecap="round"/>
<path d="M54.9647 26.2622C54.9564 26.3006 54.9482 26.3391 54.8505 26.5335C54.7528 26.7278 54.5659 27.0769 54.4669 27.2636C54.3678 27.4503 54.3623 27.4641 54.3746 27.4656C54.4178 27.4712 54.5088 27.4119 54.643 27.3317C54.8078 27.2332 54.9062 27.1535 54.9023 27.1575C54.8858 27.1745 54.8243 27.2027 54.7382 27.2334C54.5431 27.3031 54.3958 27.3337 54.3528 27.36C54.3357 27.3705 54.3345 27.3836 54.351 27.3906C54.3674 27.3977 54.4031 27.4004 54.5191 27.3881C54.6351 27.3758 54.8303 27.3483 54.9748 27.3218C55.1193 27.2952 55.2072 27.2705 55.2525 27.2522C55.2979 27.234 55.2979 27.223 55.1068 27.205C54.9158 27.1869 54.5337 27.1622 54.282 27.155C54.0302 27.1477 53.9202 27.1587 53.8498 27.1685C53.7795 27.1783 53.752 27.1865 53.7502 27.1922C53.7271 27.2645 53.8984 27.1784 53.9151 27.1839C53.9814 27.2056 53.752 27.256 53.5642 27.2782C53.4319 27.2938 53.2226 27.3003 53.1136 27.3005C53.0046 27.3006 53.0018 27.2896 53.0059 27.2744C53.01 27.2591 53.021 27.2398 53.1187 27.1351C53.2165 27.0304 53.4006 26.8407 53.5202 26.7114C53.6399 26.5821 53.6893 26.5189 53.7409 26.4245C53.7925 26.33 53.8448 26.2064 53.8772 26.1055C53.9323 25.9338 53.9291 25.8073 53.9126 25.7228C53.898 25.6484 53.8101 25.6099 53.7229 25.5725C53.6201 25.5284 53.4966 25.5181 53.3816 25.5181C53.2798 25.518 53.2157 25.5485 53.1853 25.5707C53.1708 25.5812 53.1603 25.5928 53.1683 25.6026C53.1764 25.6124 53.2039 25.6207 53.2785 25.6153C53.3532 25.6099 53.4741 25.5907 53.656 25.5436C53.8378 25.4966 54.077 25.4224 54.229 25.3718C54.3811 25.3212 54.4388 25.2965 54.3531 25.4445C54.2674 25.5926 54.0365 25.9142 53.9492 26.0743C53.8618 26.2345 53.925 26.2235 54.0607 26.1697C54.1963 26.116 54.4025 26.0198 54.7011 25.852C54.9997 25.6843 55.3845 25.4479 55.6047 25.3083C55.8249 25.1686 55.8689 25.1329 55.9012 25.1035C55.9335 25.0741 55.9527 25.0521 55.8609 25.1452C55.7691 25.2383 55.5657 25.4472 55.4513 25.5672C55.3369 25.6872 55.3177 25.7119 55.3174 25.7096C55.3171 25.7072 55.3363 25.677 55.3971 25.5913C55.4579 25.5056 55.5596 25.3654 55.6188 25.2754C55.6988 25.1538 55.7087 25.0962 55.7115 25.0671C55.7116 25.0545 55.7088 25.0463 55.7019 25.0393C55.695 25.0323 55.684 25.0268 55.6477 25.0211" stroke="black" stroke-linecap="round"/>
<path d="M54.9979 25.1128C55.0006 25.0853 55.0033 25.0578 55.0927 24.6767C55.1821 24.2956 55.358 23.5617 55.4459 23.0669C55.5337 22.572 55.5283 22.3384 55.5199 22.1864C55.5081 21.9707 55.4728 21.8786 55.4409 21.8314C55.427 21.8108 55.4118 21.8008 55.3992 21.7951C55.3867 21.7895 55.3757 21.7895 55.3631 21.8005C55.3506 21.8115 55.3368 21.8334 55.1195 22.3175C54.9021 22.8016 54.4816 23.7471 54.3158 24.0473C54.15 24.3475 54.2517 23.9737 54.3165 23.6822C54.3812 23.3907 54.406 23.1928 54.4187 23.0674C54.4315 22.9421 54.4315 22.8954 54.4273 22.8755C54.4232 22.8555 54.415 22.8638 54.3997 22.8872C54.3845 22.9107 54.3625 22.9492 54.1821 23.2741C54.0018 23.5991 53.6637 24.2092 53.4882 24.5318C53.3126 24.8544 53.3099 24.8709 53.3194 24.867C53.329 24.8632 53.351 24.8384 53.508 24.5989C53.665 24.3594 53.9564 23.9059 54.1147 23.6626C54.273 23.4194 54.2895 23.4002 54.2252 23.5991C54.1609 23.7981 54.0152 24.2159 53.9388 24.4504C53.8507 24.7206 53.8595 24.7767 53.8719 24.7989C53.8858 24.8237 53.9673 24.7827 54.1522 24.6476C54.2888 24.5478 54.4966 24.364 54.5905 24.2953C54.6844 24.2267 54.6542 24.2734 54.5479 24.4088C54.4416 24.5442 54.2602 24.7668 54.1544 24.9021C54.0191 25.0751 53.9956 25.1376 53.9997 25.1626C54.0037 25.1871 54.0922 25.1491 54.3638 24.9921C54.5867 24.8632 54.9679 24.6097 55.2279 24.4259C55.488 24.2421 55.6117 24.1295 55.6493 24.1978C55.6869 24.2662 55.6347 24.5191 55.6064 24.6796C55.5781 24.8401 55.5754 24.9006 55.5781 24.9345C55.5808 24.9684 55.5891 24.9739 55.6002 24.9739C55.6256 24.9741 55.6639 24.9409 55.7207 24.8828C55.7981 24.8036 55.8665 24.6886 55.9371 24.5668C56.0119 24.4377 56.0582 24.3027 56.0888 24.185C56.1165 24.0781 56.0974 23.9859 56.0698 23.9249C56.0202 23.8859 55.9395 23.8717 55.8536 23.8745C55.8171 23.8772 55.7951 23.8827 55.7641 23.8967" stroke="black" stroke-linecap="round"/>
<path d="M55.6369 22.6099C55.4017 21.8327 55.1665 21.0555 54.9891 20.333C54.8117 19.6105 54.6992 18.9662 54.6413 18.665C54.5833 18.3638 54.5833 18.4252 54.5935 18.5181C54.6038 18.6111 54.6242 18.7338 54.6092 19.6049C54.5941 20.476 54.543 22.0918 54.5269 22.2645C54.5108 22.4373 54.5312 21.1181 54.5367 20.4232C54.5421 19.7282 54.5319 19.6976 54.5266 19.7585C54.5081 19.972 54.5418 20.2842 54.5677 20.9615C54.5877 21.485 54.5629 22.375 54.5627 22.8742C54.5625 23.3735 54.5728 23.4553 54.6138 23.4514C54.6549 23.4475 54.7265 23.3555 54.7787 23.2263C54.8309 23.097 54.8616 22.9334 54.9081 21.8418C54.9545 20.7503 55.0159 18.7357 55.0424 17.6263C55.0689 16.5169 55.0587 16.3737 55.0636 16.3715C55.0686 16.3694 55.089 16.5125 55.2479 17.1794C55.4067 17.8463 55.7032 19.0326 55.8611 19.6794C56.019 20.3263 56.0292 20.3979 56.0396 20.4552C56.05 20.5126 56.0602 20.5535 56.0399 20.1808C56.0196 19.8082 55.9685 19.0208 55.9166 18.4975C55.8647 17.9743 55.8136 17.7391 55.777 17.6588C55.7533 17.6069 55.6682 18.031 55.5604 18.7972C55.4926 19.2785 55.3605 19.9418 55.2973 20.3251C55.2341 20.7084 55.2341 20.7902 55.2136 20.2648C55.1932 19.7394 55.1523 18.6043 55.1107 17.8712C55.0692 17.1382 55.0283 16.8416 54.997 16.6633C54.9657 16.485 54.9453 16.4338 54.9756 17.246C55.006 18.0583 55.0878 19.7354 55.1862 20.7988C55.2846 21.8621 55.3971 22.261 55.4755 22.492C55.5539 22.723 55.5948 22.7741 55.6261 22.7545C55.6574 22.7348 55.6778 22.6427 55.5963 21.1534C55.5148 19.6641 55.3308 16.7803 55.2308 15.31C55.1309 13.8398 55.1206 13.8704 55.1103 13.9271C55.046 14.2784 55.0587 14.7164 55.0226 15.2456C54.9977 15.6106 54.9967 16.1735 54.9812 16.4224C54.9706 16.5929 54.7401 16.0245 54.4305 15.1428C54.188 14.4521 54.1702 13.894 54.1547 13.6298C54.1333 13.2652 54.0466 14.2627 53.9689 14.5054C53.938 14.6021 53.9325 14.7071 53.9939 15.1785C54.0474 15.5895 54.178 16.3452 54.2668 16.8117C54.4291 17.6649 54.5932 17.837 54.6451 17.9713C54.6793 18.0597 54.6763 18.2495 54.6814 18.4816C54.6849 18.6428 54.7073 19.0428 54.7021 19.5694C54.7003 19.7587 54.6868 19.7893 54.6304 19.6773C54.4503 19.3196 54.3255 18.9746 54.2328 18.769C54.0901 18.4524 54.0565 18.1791 54.0412 17.9737C53.99 17.2885 53.9431 16.9817 53.876 16.687C53.8048 16.3745 53.7367 15.9194 53.6333 15.4065C53.5905 15.1939 53.5508 14.9879 53.4782 14.6727C53.4473 14.4707 53.3853 14.2646 53.3696 14.0937C53.3645 14.0573 53.3543 14.0266 53.3438 13.995" stroke="black" stroke-linecap="round"/>
<path d="M53.3164 13.6172C53.453 13.563 53.5441 13.5313 53.5863 13.5222C53.608 13.5175 53.6298 13.5105 53.6649 13.4969C53.7 13.4833 53.7477 13.4626 53.7788 13.4481C53.8233 13.4273 53.863 13.3935 53.9098 13.3499C53.9618 13.3016 53.9687 13.2761 53.9688 13.2715C53.969 13.2546 53.8989 13.2929 53.826 13.3072C53.7402 13.324 53.6838 13.3359 53.6661 13.3372C53.6637 13.3374 53.6641 13.3321 53.6666 13.3269C53.6806 13.2986 53.7044 13.2813 53.7213 13.2657C53.7362 13.2518 53.768 13.2215 53.8085 13.183C53.8156 13.1763 53.8177 13.1719 53.8196 13.168C53.8216 13.1641 53.8229 13.1602 53.8197 13.1569C53.7932 13.1298 53.7384 13.1536 53.7 13.1569C53.6875 13.158 53.6746 13.1601 53.6628 13.1576C53.6452 13.1537 53.6926 13.1238 53.7128 13.1068C53.7188 13.1018 53.7264 13.0939 53.7285 13.0886C53.7305 13.0833 53.7266 13.0808 53.7227 13.0801C53.7071 13.0846 53.6915 13.0924 53.6732 13.0924C53.6718 13.0912 53.6757 13.0886 53.6836 13.0859" stroke="black" stroke-linecap="round"/>
<path d="M106.926 30.5703C106.931 30.5937 106.939 30.6093 106.945 30.6249C106.95 30.6397 106.949 30.6562 106.952 30.6731C106.957 30.695 106.944 30.707 106.939 30.7154C106.937 30.7204 106.931 30.7252 106.928 30.7194C106.927 30.6758 106.932 30.6602 106.937 30.6414C106.937 30.6342 106.938 30.6239 106.945 30.6211" stroke="black" stroke-width="0.1" stroke-linecap="round"/>
<path d="M111.883 32.625C111.883 32.6354 111.88 32.6587 111.875 32.6757C111.874 32.6796 111.872 32.6835 111.871 32.6874C111.87 32.6914 111.869 32.6952 111.859 32.6953" stroke="black" stroke-width="0.1" stroke-linecap="round"/>
<path d="M106.953 30.4961C106.955 30.5039 106.968 30.5272 106.977 30.5468C106.984 30.5631 106.993 30.578 107 30.5937C107.006 30.6089 107.008 30.643 107.011 30.6737C107.016 30.7223 106.999 30.746 106.988 30.7623C106.976 30.7805 106.967 30.7994 106.956 30.8202C106.945 30.8407 106.941 30.8837 106.944 30.9108C106.947 30.9347 106.941 30.8377 106.946 30.8002C106.949 30.7748 106.959 30.7579 106.972 30.7403C106.982 30.7277 106.984 30.7123 106.984 30.7071C106.98 30.6781 106.965 30.7694 106.954 30.802C106.948 30.8198 106.952 30.8359 106.954 30.8872C106.955 30.9057 106.966 30.8284 106.969 30.784C106.973 30.7342 106.987 30.6851 106.999 30.6421C107.016 30.5827 107.013 30.5391 107.019 30.517C107.024 30.5003 107.028 30.4741 107.03 30.4117C107.03 30.3879 107.023 30.3725 107.023 30.3653C107.021 30.3488 107.017 30.4152 107.015 30.4595C107.014 30.47 107.013 30.479 107.012 30.5165C107.012 30.554 107.012 30.6198 107.011 30.6588C107.01 30.7407 107.002 30.8058 106.998 30.8306C106.993 30.8622 106.987 30.8853 106.983 30.9191C106.976 30.979 106.974 31.0129 106.972 31.0643C106.971 31.0755 106.97 31.0806 106.969 31.0878C106.969 31.095 106.969 31.104 106.969 31.0867C106.969 31.0256 106.971 30.9586 106.977 30.8996C106.986 30.8111 106.991 30.7475 106.995 30.7261C107 30.7036 107.006 30.6643 107.018 30.6188C107.033 30.5593 107.052 30.5053 107.056 30.4747C107.061 30.431 107.065 30.3921 107.067 30.3083C107.069 30.2549 107.077 30.2267 107.08 30.1942C107.086 30.1657 107.091 30.1433 107.094 30.1335C107.095 30.1289 107.096 30.1251 107.101 30.1211" stroke="black" stroke-width="0.1" stroke-linecap="round"/>
<path d="M111.844 32.5742C111.831 32.6283 111.805 32.6936 111.773 32.7535C111.751 32.7953 111.743 32.8085 111.74 32.8099C111.729 32.8143 111.748 32.771 111.77 32.7204C111.828 32.5825 111.84 32.5561 111.844 32.5443C111.845 32.5428 111.842 32.5506 111.815 32.5939C111.787 32.6372 111.734 32.7158 111.704 32.7589C111.674 32.802 111.669 32.8071 111.667 32.8079C111.663 32.809 111.677 32.7724 111.711 32.7023C111.731 32.6604 111.76 32.6065 111.776 32.5741C111.796 32.5334 111.799 32.5182 111.801 32.5149C111.802 32.5133 111.797 32.5258 111.773 32.5627C111.749 32.5996 111.705 32.664 111.666 32.7166C111.628 32.7691 111.596 32.8078 111.582 32.8245C111.569 32.8412 111.575 32.8347 111.599 32.7998C111.623 32.7649 111.664 32.7018 111.691 32.6583C111.717 32.6148 111.728 32.5929 111.739 32.5616C111.785 32.4398 111.786 32.396 111.788 32.3834C111.79 32.3657 111.773 32.4321 111.748 32.482C111.732 32.5144 111.704 32.5589 111.654 32.6234C111.605 32.6879 111.534 32.7704 111.504 32.8013C111.474 32.8322 111.487 32.809 111.498 32.7906C111.509 32.7722 111.518 32.7593 111.535 32.7276C111.553 32.6958 111.579 32.6455 111.601 32.5919C111.623 32.5383 111.641 32.4829 111.651 32.4498C111.661 32.4167 111.663 32.4077 111.663 32.4063C111.664 32.4048 111.664 32.4113 111.65 32.4455C111.637 32.4798 111.61 32.5417 111.566 32.6174C111.521 32.6931 111.461 32.7807 111.445 32.8014C111.429 32.8221 111.46 32.7731 111.484 32.7375C111.509 32.702 111.526 32.6814 111.57 32.6372C111.614 32.5931 111.685 32.5261 111.733 32.4767C111.807 32.4005 111.831 32.3581 111.829 32.347C111.828 32.3326 111.793 32.3683 111.721 32.4568C111.66 32.5319 111.553 32.6704 111.55 32.6744C111.547 32.6784 111.653 32.5443 111.711 32.4682C111.779 32.3793 111.786 32.3568 111.783 32.3528C111.78 32.3488 111.768 32.3669 111.736 32.409C111.704 32.4511 111.649 32.5232 111.601 32.5811C111.552 32.6389 111.511 32.6801 111.483 32.7059C111.421 32.7641 111.379 32.7747 111.368 32.7747C111.364 32.7747 111.366 32.7696 111.393 32.725C111.42 32.6805 111.473 32.5954 111.522 32.52C111.571 32.4446 111.615 32.3814 111.636 32.3534C111.657 32.3254 111.655 32.3344 111.65 32.3481C111.644 32.3618 111.637 32.3798 111.605 32.4323C111.573 32.4848 111.518 32.5711 111.458 32.6485C111.399 32.7259 111.337 32.7916 111.301 32.8287C111.266 32.8658 111.258 32.8722 111.256 32.871C111.254 32.8698 111.258 32.8608 111.309 32.7904C111.361 32.72 111.46 32.5886 111.516 32.5131C111.571 32.4376 111.58 32.4221 111.587 32.4097C111.594 32.3972 111.597 32.3882 111.601 32.375" stroke="black" stroke-width="0.1" stroke-linecap="round"/>
<path d="M111.73 31.1585C111.717 31.2098 111.705 31.2612 111.589 31.4865C111.473 31.7118 111.255 32.1096 111.085 32.3754C110.715 32.953 110.596 32.9922 110.558 33.0214C110.541 33.0337 110.724 32.7422 111.054 32.315C111.298 31.9986 111.49 31.8331 111.555 31.7552C111.572 31.734 111.478 31.8644 111.198 32.1217C110.962 32.3393 110.514 32.7126 110.277 32.914C110.039 33.1154 110.02 33.1282 110.01 33.1252C109.928 33.1004 110.155 32.9023 110.361 32.6095C110.524 32.3776 110.823 31.9894 111.017 31.7076C111.211 31.4258 111.294 31.2654 111.328 31.1892C111.361 31.113 111.342 31.1259 111.078 31.3859C110.815 31.6459 110.308 32.1527 109.957 32.4908C109.606 32.8289 109.427 32.9828 109.629 32.6868C109.832 32.3909 110.422 31.6403 110.752 31.2119C111.082 30.7835 111.133 30.7001 111.163 30.6411C111.192 30.5821 111.199 30.55 110.807 30.9184C110.416 31.2868 109.627 32.0567 109.23 32.4469C108.833 32.837 108.853 32.8242 109.151 32.4647C109.45 32.1053 110.027 31.3996 110.379 30.9398C110.731 30.48 110.84 30.2876 110.422 30.6953C110.003 31.1029 109.054 32.1166 108.712 32.4431C108.37 32.7696 108.666 32.3782 109.007 31.9906C109.348 31.6029 109.727 31.2308 109.976 30.9718C110.226 30.7128 110.335 30.578 110.359 30.5311C110.383 30.4841 110.319 30.529 109.846 30.9371C109.374 31.3452 108.495 32.115 108.052 32.5052C107.609 32.8953 107.628 32.8825 107.946 32.568C108.264 32.2534 108.879 31.6375 109.245 31.2593C109.61 30.8811 109.706 30.7592 109.769 30.6708C109.864 30.5358 109.89 30.4524 109.89 30.4168C109.864 30.4132 109.774 30.4775 109.513 30.7158C109.323 30.8963 109.015 31.1978 108.697 31.5085" stroke="black" stroke-linecap="round"/>
<path d="M107.298 29.4866C107.439 29.7242 107.661 30.2183 107.67 30.3189C107.679 30.4076 107.699 30.4971 107.703 30.888C107.704 31.0092 107.687 31.0803 107.674 31.2285C107.649 31.5192 107.609 31.8247 107.606 31.9998C107.605 32.035 107.589 31.6931 107.593 31.1975C107.594 30.9317 107.622 30.7895 107.632 30.7084C107.637 30.6594 107.648 30.4989 107.645 30.3044C107.644 30.2445 107.635 30.2638 107.625 30.2866C107.585 30.3814 107.544 30.4582 107.509 30.5716C107.466 30.7064 107.408 30.8471 107.392 30.9281C107.371 31.0291 107.356 31.4015 107.324 31.6603C107.32 31.6901 107.317 31.7153 107.32 31.7189C107.333 31.7326 107.504 31.4717 107.785 31.09C107.986 30.8171 108.049 30.5506 108.107 30.3434C108.168 30.1269 108.244 30.0377 108.266 30.018C108.278 30.0076 108.283 30.0881 108.19 30.5477C108.097 31.0072 107.904 31.8669 107.805 32.3322C107.706 32.7975 107.706 32.8424 107.719 32.872C107.732 32.9015 107.757 32.9144 107.79 32.9017C107.822 32.8891 107.861 32.8506 107.993 32.6736C108.125 32.4966 108.35 32.1822 108.719 31.7091C109.088 31.2361 109.595 30.6138 109.936 30.1456C110.277 29.6775 110.438 29.3824 110.546 29.1502C110.725 28.7661 110.758 28.5667 110.739 28.5406C110.702 28.4899 110.558 28.7014 110.329 29.0302C110.179 29.2466 109.978 29.5772 109.703 29.9863C109.427 30.3954 109.087 30.8766 108.889 31.1662C108.638 31.5336 108.581 31.6828 108.574 31.735C108.573 31.7486 108.632 31.6589 108.738 31.4269C108.845 31.1948 109.012 30.8035 109.155 30.3293C109.299 29.855 109.415 29.3097 109.24 29.4169C109.065 29.5241 108.597 30.3004 108.349 30.7163C108.102 31.1322 108.089 31.1643 108.085 31.168C108.082 31.1717 108.088 31.146 108.162 30.9596C108.236 30.7732 108.377 30.4267 108.514 29.95C108.651 29.4732 108.779 28.8766 108.845 28.5018C108.911 28.1271 108.911 27.9924 108.796 28.3592C108.68 28.7261 108.45 29.5986 108.35 29.6888C108.25 29.779 108.289 29.0605 108.299 28.6454C108.309 28.2303 108.29 28.1405 108.261 28.1231C108.231 28.1057 108.193 28.1635 108.083 28.437C107.974 28.7105 107.794 29.1981 107.692 29.4974C107.558 29.8889 107.551 30.0113 107.557 29.9988C107.572 29.9699 107.576 29.8836 107.666 29.5519C107.756 29.2203 107.923 28.6429 108.019 28.262C108.114 27.8812 108.133 27.7144 108.137 27.6445C108.14 27.5746 108.128 27.6067 108.07 27.9536C108.012 28.3005 107.909 28.9613 107.856 29.3723C107.785 29.9224 107.81 30.0955 107.829 30.144C107.839 30.1684 107.861 30.1861 107.884 30.1992C107.907 30.2123 107.932 30.2187 108.013 30.222C108.094 30.2253 108.228 30.2253 108.367 30.2253" stroke="black" stroke-linecap="round"/>
</g>
<defs>
<clipPath id="clip0_433_3">
<rect width="207.405" height="42.166" fill="white"/>
</clipPath>
</defs>
</svg>
